<svg xmlns="http://www.w3.org/2000/svg" viewBox="0 0 32 32" fill="none">
  <rect width="32" height="32" rx="6" fill="#1a1f24"/>
  <path d="M4 26 C10 20 16 18 16 18 C16 18 22 20 28 26 L26 28 C21 24 18 23 16 23 C14 23 11 24 6 28 Z" fill="#8f3222"/>
  <path d="M8 20 C12 16 15 15 16 15 C17 15 20 16 24 20 L22 22 C19 19 17 18 16 18 C15 18 13 19 10 22 Z" fill="#8f3222"/>
  <path d="M11 14 C13.5 11 15 10.5 16 10.5 C17 10.5 18.5 11 21 14 L19.5 15.5 C17.5 13.5 16.5 13 16 13 C15.5 13 14.5 13.5 12.5 15.5 Z" fill="#8f3222"/>
  <circle cx="16" cy="8" r="1.5" fill="#d4b56a"/>
</svg>
